<?xml version="1.0" encoding="iso-8859-1"?>
<!-- Generator: Adobe Illustrator 19.0.0, SVG Export Plug-In . SVG Version: 6.00 Build 0)  -->
<svg version="1.1" id="Capa_1" xmlns="http://www.w3.org/2000/svg" xmlns:xlink="http://www.w3.org/1999/xlink" x="0px" y="0px"
	 viewBox="0 0 512 512" style="enable-background:new 0 0 512 512;" xml:space="preserve">
<g>
	<path style="fill:#AF6E5A;" d="M115.514,69.845c10.642,16.788,12.855,43.99-0.543,52.104s-37.334-5.934-47.976-22.722
		s-6.926-34.637,6.472-42.75S104.872,53.056,115.514,69.845z"/>
	<path style="fill:#AF6E5A;" d="M50.406,124.738c12.955,11.349,21.794,33.369,13.064,43.334s-31.722,4.102-44.677-7.246
		c-12.955-11.349-14.576-27.046-5.846-37.012S37.451,113.389,50.406,124.738z"/>
	<path style="fill:#AF6E5A;" d="M228.497,88.16c-7.433,15.536-6.877,39.258,5.074,44.975c11.951,5.718,30.771-8.733,38.204-24.269
		c7.433-15.536,2.736-30.602-9.215-36.32C250.609,66.828,235.931,72.623,228.497,88.16z"/>
	<path style="fill:#AF6E5A;" d="M242.703,193.889c-9.232-35.243-38.284-46.291-50.779-49.82c-13.976-3.947-29.444-5.071-45.126-1.85
		c-46.511,9.553-76.967,52.594-69.802,87.477c7.164,34.884,46.353,34.364,92.865,24.811
		C216.374,244.955,251.728,228.339,242.703,193.889z"/>
	<path style="fill:#AF6E5A;" d="M202.83,72.932c-3.214,19.616-19.649,41.404-35.051,38.556
		c-15.402-2.849-23.939-29.256-20.725-48.872s17.858-30.476,33.26-27.627C195.716,37.838,206.044,53.317,202.83,72.932z"/>
</g>
<g>
	<path style="fill:#965A50;" d="M115.464,237.708c-8.791-30.159,0.549-67.631,22.559-93.227
		c-41.496,12.812-67.729,52.579-61.026,85.215c4.867,23.698,24.534,31.033,51.214,30.321
		C122.724,254.847,118.354,247.624,115.464,237.708z"/>
	<path style="fill:#965A50;" d="M29.128,144.175c-7.975-7.071-12.435-15.159-13.638-22.692c-0.878,0.733-1.768,1.448-2.542,2.331
		c-8.73,9.965-7.109,25.663,5.846,37.012c12.955,11.348,35.948,17.212,44.677,7.246c1.893-2.161,2.823-4.957,3.201-8.019
		C55.201,160.18,39.626,153.482,29.128,144.175z"/>
	<path style="fill:#965A50;" d="M84.579,89.673c-7.306-13.734-7.705-26.933-2.982-36.302c-2.814,0.62-5.569,1.555-8.13,3.105
		c-13.398,8.114-17.115,25.962-6.472,42.75c10.642,16.788,34.578,30.836,47.976,22.722c0.463-0.281,0.765-0.748,1.191-1.073
		C104.264,115.416,91.557,102.791,84.579,89.673z"/>
	<path style="fill:#965A50;" d="M164.27,67.414c5.284-14.886,15.394-24.464,26.777-27.823c-3.151-2.267-6.762-3.868-10.732-4.602
		c-15.402-2.849-30.046,8.011-33.26,27.627c-2.802,17.098,3.329,39.343,15.147,46.663C159.035,96.132,159.737,80.181,164.27,67.414z
		"/>
	<path style="fill:#965A50;" d="M244.001,95.683c8.754-9.3,19.261-13.373,28.859-12.777c-2.169-4.504-5.671-8.146-10.301-10.361
		c-11.951-5.718-26.629,0.078-34.063,15.614c-6.004,12.549-6.67,30.287-0.454,39.716
		C229.892,116.597,235.968,104.218,244.001,95.683z"/>
</g>
<g>
	<path style="fill:#AF6E5A;" d="M380.743,278.955c-0.497,19.871-13.791,43.706-29.438,42.994s-27.722-25.701-27.225-45.572
		s13.515-32.635,29.162-31.923C368.888,245.166,381.239,259.084,380.743,278.955z"/>
	<path style="fill:#AF6E5A;" d="M296.102,288.347c4.452,16.638-0.455,39.853-13.253,43.277s-28.642-14.239-33.093-30.877
		s2.935-30.583,15.733-34.008C278.287,263.316,291.65,271.71,296.102,288.347z"/>
	<path style="fill:#AF6E5A;" d="M464.438,357.03c-14.82,8.775-27.555,28.796-20.805,40.196c6.75,11.4,30.428,9.862,45.248,1.087
		c14.82-8.775,19.298-23.907,12.548-35.307C494.679,351.606,479.258,348.256,464.438,357.03z"/>
	<path style="fill:#AF6E5A;" d="M417.421,452.791c11.935-34.422-6.059-59.764-14.479-69.648
		c-9.417-11.055-21.645-20.595-36.468-26.642c-43.963-17.938-93.216,0.884-106.669,33.857c-13.454,32.973,19.4,54.343,63.364,72.281
		C367.133,480.576,405.755,486.437,417.421,452.791z"/>
	<path style="fill:#AF6E5A;" d="M451.581,330.097c-13.584,14.512-39.362,23.474-50.576,12.538s-3.616-37.629,9.967-52.141
		s31.794-15.389,43.008-4.453C465.194,296.978,465.165,315.586,451.581,330.097z"/>
</g>
<g>
	<path style="fill:#965A50;" d="M287.313,418.415c9.474-29.952,38.082-55.893,70.611-64.917c-41.61-12.44-85.532,6.011-98.118,36.86
		c-9.139,22.399,3.122,39.436,25.688,53.688C283.811,436.695,284.198,428.262,287.313,418.415z"/>
	<path style="fill:#965A50;" d="M267.607,292.661c-2.693-10.312-1.899-19.514,1.292-26.444c-1.137,0.12-2.275,0.219-3.409,0.523
		c-12.798,3.424-20.184,17.37-15.733,34.007c4.452,16.637,20.295,34.301,33.093,30.876c2.775-0.742,5.103-2.549,7.121-4.882
		C280.369,320.466,271.152,306.235,267.607,292.661z"/>
	<path style="fill:#965A50;" d="M344.006,278.221c1.57-15.477,8.582-26.666,17.718-31.825c-2.683-1.05-5.493-1.807-8.483-1.942
		c-15.647-0.712-28.665,12.052-29.161,31.923c-0.497,19.871,11.578,44.86,27.225,45.572c0.541,0.025,1.052-0.196,1.586-0.229
		C346.042,310.564,342.507,293.004,344.006,278.221z"/>
	<path style="fill:#965A50;" d="M422.609,304.059c12.673-9.429,26.402-11.764,37.73-8.223c-1.357-3.636-3.467-6.976-6.358-9.794
		c-11.214-10.936-29.424-10.058-43.008,4.453c-11.84,12.649-19.122,34.545-13.373,47.202
		C402.282,325.011,411.74,312.147,422.609,304.059z"/>
	<path style="fill:#965A50;" d="M473.136,371.907c12.448-2.858,23.445-0.397,31.089,5.438c0.703-4.95-0.181-9.924-2.795-14.34
		c-6.75-11.4-22.171-14.75-36.991-5.976c-11.971,7.087-22.392,21.456-22.472,32.749C449.776,381.437,461.712,374.53,473.136,371.907
		z"/>
</g>
<path d="M105.926,131.682c-5.938,0-12.487-1.749-19.293-5.229c-10.262-5.247-19.944-13.989-25.9-23.385
	c-6.563-10.352-8.836-21.765-6.401-32.134c2.085-8.88,7.529-16.371,15.329-21.095c17.43-10.554,39.919-3.768,52.313,15.784l0,0
	c8.444,13.32,11.966,31.429,8.765,45.061c-1.864,7.94-5.931,14.002-11.758,17.531C115.16,130.529,110.744,131.681,105.926,131.682z
	 M87.421,59.86c-3.448,0-6.852,0.911-9.989,2.81c-4.386,2.656-7.324,6.699-8.497,11.693c-1.506,6.412,0.081,13.755,4.467,20.674
	c7.673,12.104,22.827,21.623,32.578,21.624c2.012,0,3.793-0.405,5.232-1.277c2.907-1.76,4.283-5.392,4.926-8.13
	c2.266-9.65-0.607-23.782-6.831-33.601l0,0C103.685,64.787,95.438,59.86,87.421,59.86z"/>
<path d="M49.916,180.582c-2.706,0-5.575-0.288-8.58-0.87c-9.829-1.904-20.096-6.895-27.465-13.35
	c-7.511-6.58-12.324-14.974-13.551-23.635c-1.259-8.887,1.226-17.411,6.999-24.001c11.839-13.515,32.51-13.418,48.084,0.225l0,0
	c7.369,6.456,13.668,15.977,16.849,25.469c3.906,11.656,2.816,21.776-3.071,28.497C64.759,177.964,58.08,180.582,49.916,180.582z
	 M29.869,123.638c-4.364,0-8.352,1.643-11.268,4.972c-2.849,3.252-4.067,7.519-3.43,12.013c0.724,5.107,3.772,10.241,8.584,14.456
	c5.378,4.711,13.208,8.508,20.434,9.907c6.327,1.227,11.58,0.477,13.709-1.953c5.398-6.162-2.652-24.278-12.379-32.799
	C40.524,125.858,34.942,123.638,29.869,123.638z"/>
<path d="M170.404,118.534c-1.071,0-2.138-0.074-3.201-0.223c-16.272-2.282-25.638-21.177-27.702-38.891
	c-0.479-4.114,2.467-7.838,6.582-8.318c4.115-0.476,7.838,2.467,8.317,6.581c1.599,13.727,7.999,24.807,14.886,25.773
	c9.738,1.365,23.978-16.534,26.73-33.604c1.304-8.088-0.132-15.461-4.044-20.761c-3.046-4.127-7.34-6.684-12.418-7.397
	c-8.717-1.223-17.001,3.511-21.628,12.352c-1.921,3.669-6.453,5.088-10.123,3.166c-3.67-1.921-5.087-6.453-3.166-10.123
	c7.536-14.397,22.06-22.348,37-20.249c9.03,1.266,16.987,6.005,22.403,13.344c6.325,8.57,8.734,19.954,6.784,32.056
	c-1.77,10.982-7.223,22.833-14.586,31.7C188.344,113.446,179.283,118.534,170.404,118.534z"/>
<path d="M239.84,141.83c-3.158,0-6.27-0.642-9.248-2.066c-8.059-3.856-13.051-12.727-14.055-24.98
	c-0.818-9.977,1.218-21.21,5.446-30.048c4.31-9.008,11.094-15.906,19.103-19.424c8.219-3.611,17.097-3.516,24.999,0.265
	s13.546,10.634,15.892,19.299c2.286,8.444,1.172,18.055-3.138,27.063C271.964,126.313,255.361,141.83,239.84,141.83z M253.39,77.692
	c-2.093,0-4.215,0.451-6.27,1.353c-4.723,2.075-8.844,6.395-11.605,12.165c-5.581,11.666-5.839,31.487,1.551,35.023
	c7.389,3.537,22.663-9.103,28.244-20.768c2.761-5.77,3.539-11.69,2.191-16.669c-1.186-4.382-3.988-7.823-7.887-9.689
	C257.641,78.164,255.531,77.692,253.39,77.692z"/>
<path d="M124.857,267.591c-6.427,0-12.195-0.484-17.421-1.445c-21.047-3.871-33.732-15.637-37.702-34.969
	c-3.944-19.206,1.956-40.847,16.188-59.374c14.603-19.01,35.744-32.17,59.529-37.056c16.117-3.309,32.987-2.618,48.788,2
	c3.976,1.162,6.257,5.327,5.095,9.302c-1.162,3.976-5.326,6.258-9.302,5.095c-13.462-3.934-27.835-4.524-41.563-1.705
	c-44.049,9.048-70.141,49.022-64.042,78.72c2.583,12.575,10.093,24.352,40.397,24.354c11.175,0,25.445-1.601,43.716-5.353
	c26.239-5.389,43.821-11.466,55.332-19.124c12.575-8.366,17.177-18.374,14.483-31.492c-2.517-12.257-10.653-23.966-22.908-32.969
	c-3.338-2.452-4.056-7.146-1.604-10.484c2.453-3.339,7.146-4.057,10.484-1.603c15.254,11.207,25.454,26.137,28.72,42.039
	c3.971,19.332-3.05,35.144-20.867,46.998c-13.169,8.761-32.432,15.539-60.622,21.329
	C152.837,265.698,137.562,267.591,124.857,267.591z"/>
<path d="M351.878,329.186c-0.349,0-0.698-0.008-1.048-0.024c-9.964-0.463-19.155-7.383-25.881-19.486
	c-5.598-10.074-8.769-22.728-8.48-33.848c0.318-12.254,4.788-22.997,12.588-30.251c6.679-6.212,15.372-9.397,24.482-8.977
	c20.353,0.946,35.249,19.11,34.649,42.252c-0.409,15.766-7.573,32.766-17.826,42.304
	C364.697,326.423,358.327,329.186,351.878,329.186z M351.912,251.56c-4.759,0-9.112,1.717-12.64,4.998
	c-4.823,4.486-7.596,11.467-7.809,19.657c-0.448,17.283,10.239,37.505,20.063,37.962c3.402,0.143,6.561-2.093,8.62-4.007
	c7.258-6.752,12.746-20.087,13.047-31.709c0.389-15.009-8.169-26.314-20.35-26.88C352.531,251.568,352.22,251.56,351.912,251.56z"/>
<path d="M279.282,339.226c-7.142,0-14.65-3.63-21.622-10.559c-7.101-7.057-12.847-16.921-15.37-26.388
	c-5.332-20.006,3.738-38.581,21.098-43.209c8.465-2.256,17.208-0.708,24.618,4.357c7.222,4.937,12.615,12.969,15.187,22.619
	c4.939,18.529,0.242,47.462-18.624,52.491C282.839,338.998,281.072,339.226,279.282,339.226z M270.972,273.074
	c-1.243,0-2.49,0.162-3.721,0.49c-9.247,2.465-13.649,12.916-10.467,24.852c1.841,6.909,6.228,14.423,11.449,19.612
	c4.571,4.543,9.35,6.852,12.473,6.015c7.916-2.11,11.324-21.638,7.993-34.134c-1.647-6.181-4.9-11.188-9.158-14.099
	C276.898,274.003,273.947,273.074,270.972,273.074z"/>
<path d="M414.835,354.18c-7.394,0-13.721-2.15-18.443-6.378c-12.241-10.961-9.492-31.87-1.337-47.73
	c1.895-3.683,6.415-5.134,10.099-3.24s5.134,6.416,3.24,10.099c-6.319,12.29-7.178,25.056-1.996,29.696
	c7.326,6.56,29.123-0.372,40.918-13.013c5.589-5.991,8.504-12.913,8.209-19.494c-0.23-5.124-2.371-9.641-6.191-13.061
	c-6.555-5.869-16.074-6.556-24.842-1.792c-3.64,1.976-8.193,0.629-10.17-3.01c-1.977-3.64-0.629-8.193,3.01-10.17
	c14.279-7.757,30.768-6.266,42.008,3.798c6.794,6.083,10.76,14.451,11.17,23.563c0.478,10.641-3.864,21.436-12.226,30.399
	c-7.589,8.134-18.719,14.937-29.774,18.198C423.669,353.473,419.076,354.18,414.835,354.18z"/>
<path d="M462.894,412.755c-12.147,0-21.306-4.192-25.814-11.822c-4.544-7.692-3.747-17.839,2.245-28.573
	c4.88-8.741,12.829-16.935,21.264-21.918l0,0c17.825-10.531,38.16-6.808,47.298,8.66c4.456,7.542,5.324,16.378,2.445,24.881
	c-2.806,8.286-9.086,15.646-17.684,20.726c-8.435,4.983-19.447,7.991-29.458,8.048C463.092,412.755,462.992,412.755,462.894,412.755
	z M468.218,363.355c-6.156,3.637-12.208,9.889-15.796,16.315c-3.141,5.627-4.072,10.851-2.428,13.633
	c1.644,2.782,6.685,4.504,13.112,4.452c7.36-0.041,15.757-2.326,21.912-5.962c5.507-3.254,9.451-7.736,11.106-12.622
	c1.456-4.3,1.047-8.718-1.152-12.44C490.105,358.492,478.854,357.072,468.218,363.355L468.218,363.355z"/>
<path d="M382.546,485.492c-0.095,0-0.189,0-0.284,0c-15.817-0.061-35.589-5.165-62.225-16.063
	c-26.636-10.897-44.316-21.116-55.64-32.159c-15.321-14.941-19.3-31.778-11.827-50.044c7.424-18.146,24.38-32.831,46.521-40.287
	c22.717-7.652,47.606-6.802,70.079,2.393c15.227,6.23,28.852,16.203,39.401,28.842c2.654,3.18,2.228,7.909-0.952,10.563
	c-3.18,2.655-7.909,2.228-10.563-0.952c-8.987-10.767-20.594-19.264-33.565-24.571c-19.139-7.829-40.309-8.563-59.612-2.061
	c-18.011,6.066-31.652,17.639-37.426,31.752c-5.071,12.396-2.397,23.08,8.417,33.626c9.897,9.652,26.054,18.872,50.847,29.015
	c64.079,26.216,79.521,13.126,86.175-3.138c4.738-11.581,4.505-25.837-0.656-40.141c-1.406-3.896,0.613-8.195,4.51-9.6
	c3.896-1.407,8.194,0.613,9.6,4.509c6.424,17.805,6.576,35.886,0.428,50.911C418.335,476.273,403.791,485.492,382.546,485.492z"/>
<g>
</g>
<g>
</g>
<g>
</g>
<g>
</g>
<g>
</g>
<g>
</g>
<g>
</g>
<g>
</g>
<g>
</g>
<g>
</g>
<g>
</g>
<g>
</g>
<g>
</g>
<g>
</g>
<g>
</g>
</svg>
